<svg xmlns="http://www.w3.org/2000/svg" version="1.0" width="709" height="871" fill="#b3b3b3"><path d="M591.976 462.744c-.987-110.14 89.954-163.015 94.068-165.593-51.175-74.87-130.817-85.127-159.23-86.333-67.74-6.857-132.243 39.875-166.579 39.875-34.336 0-87.43-38.888-143.597-37.791C142.7 213.999 74.63 255.849 36.565 321.998-40.17 455.12 16.984 652.415 91.69 760.47c36.585 52.82 80.136 112.333 137.4 110.14 55.179-2.195 76.022-35.653 142.61-35.653 66.588 0 85.346 35.652 143.652 34.61 59.293-1.152 96.92-53.972 133.23-106.957 41.906-61.323 59.238-120.67 60.226-123.797-1.317-.548-115.624-44.374-116.83-176.068M482.439 139.337c30.386-36.804 50.9-87.98 45.25-138.988-43.774 1.757-96.756 29.18-128.186 65.985-28.137 32.527-52.82 84.633-46.13 134.603 48.818 3.785 98.674-24.85 129.066-61.6"/></svg>