<svg xmlns="http://www.w3.org/2000/svg" width="377.947" height="139.84" viewBox="0 0 283.46 104.88"><path d="M20.555 87.598h18.332c11.914 0 23.308-7.336 23.308-28.024 0-18.851-6.547-30.898-26.972-30.898H20.555zM0 11.395h40.328c24.223 0 42.422 15.187 42.422 46.218 0 27.102-13.879 47.266-42.422 47.266H0V11.395M107.328 87.598h18.328c11.918 0 23.309-7.336 23.309-28.024 0-18.851-6.547-30.898-26.973-30.898h-14.664zM86.773 11.395h40.325c24.222 0 42.422 15.187 42.422 46.218 0 27.102-13.875 47.266-42.422 47.266H86.773V11.395M194.102 88.906h21.996c8.117 0 15.187-2.62 15.187-12.308 0-9.559-6.023-13.356-14.797-13.356h-22.386zm0-39.676h20.816c7.2 0 12.566-3.273 12.566-11.128 0-8.903-6.804-10.735-14.136-10.735h-19.246zm-20.559-37.835h43.992c17.809 0 29.856 5.757 29.856 23.171 0 9.168-4.582 15.582-12.703 19.512 11.39 3.274 17.156 12.043 17.156 23.7 0 18.984-16.11 27.1-32.996 27.1h-45.305V11.396M266.145 26.89c-5.29 0-9.575-4.285-9.575-9.57s4.285-9.574 9.575-9.574c5.285 0 9.57 4.29 9.57 9.574 0 5.285-4.285 9.57-9.57 9.57zm0-26.894c-9.57 0-17.329 7.758-17.329 17.324 0 9.567 7.758 17.325 17.329 17.325 9.566 0 17.32-7.758 17.32-17.325 0-9.566-7.754-17.324-17.32-17.324"/><path d="M256.57 17.32c0 5.285 4.285 9.57 9.575 9.57 5.285 0 9.57-4.285 9.57-9.57s-4.285-9.574-9.57-9.574c-5.29 0-9.575 4.29-9.575 9.574" fill="#26a7bc"/></svg>