<svg width="58" height="50" xmlns="http://www.w3.org/2000/svg" xmlns:xlink="http://www.w3.org/1999/xlink"><defs><path id="a" d="M0 0h67v50H0z"/></defs><g transform="translate(-2)" fill="none" fill-rule="evenodd"><path d="M6.558 38.602l.282.087c3.389 1.045 7.01-.631 8.045-3.725l3.834-12.038c1.037-3.094-.888-6.482-4.277-7.528l-.282-.087c-3.389-1.045-7.01.63-8.045 3.725L2.28 31.074c-1.037 3.095.888 6.482 4.277 7.528" fill="#084F99"/><mask id="b" fill="#fff"><use xlink:href="#a"/></mask><path d="M50.856.593c.079-.036.157-.075.237-.108.045-.019.091-.034.137-.053 1.297-.5 2.729-.588 4.105-.15l.283.09c3.396 1.081 5.204 4.954 4.018 8.607 0 0-9.3 31.418-9.309 31.443-2.43 7.232-10.151 10.976-16.797 9.096 0 0-1.791-.532-2.53-1.064 6.605-1.419 14.9-40.872 16.219-44.06a7.196 7.196 0 013.637-3.8z" fill="#5EB7FF" mask="url(#b)"/><path d="M6.933 44.03a8 8 0 004.282.159 6.14 6.14 0 00.648-.18c2.719-.869 5.056-3.107 6.048-6.18l7.197-23.902c1.188-3.631 4.896-5.72 8.259-4.644l.281.09c3.372 1.08 5.168 4.95 3.99 8.6 0 0-6.848 22.65-7.804 24.533C22.846 55.245 9.72 49.021 6 43.69c.213.09.427.177.651.249l.282.09z" fill="#1479FB" mask="url(#b)"/></g></svg>