<?xml version="1.0" encoding="UTF-8"?> <svg xmlns="http://www.w3.org/2000/svg" id="ADDB-Logo" width="230.357" height="80" viewBox="0 0 230.357 80"><g id="Group_12" data-name="Group 12" transform="translate(59.698 39.395)"><path id="Path_8" data-name="Path 8" d="M81.48,59.743H76.136L75.164,63H72.185l4.69-14.851h4.1L85.62,63H82.452Zm-2.641-8.935-2.006,6.57H80.8Z" transform="translate(-72.185 -47.723)" fill="#241f21"></path><path id="Path_9" data-name="Path 9" d="M97.163,63.836V56.95c0-1.12-.507-1.69-1.711-1.69-1.246,0-2.281.887-2.281,1.626v6.95H90.319v-10.6h2.366l.254,1.183A5.1,5.1,0,0,1,96.424,53c2.3,0,3.612,1.014,3.612,3.169v7.668Z" transform="translate(-75.322 -48.563)" fill="#241f21"></path><path id="Path_10" data-name="Path 10" d="M112.655,62.908l-.317-1.268a4.176,4.176,0,0,1-3.464,1.458c-2.683,0-4.1-1.415-4.1-5.45,0-4.119,1.986-5.556,4.52-5.556a4.354,4.354,0,0,1,2.746.866V47.635h2.852V60.627l.337,2.282Zm-2.619-8.746c-1.648,0-2.324,1.056-2.324,3.486,0,2.555.655,3.358,2.134,3.358a1.979,1.979,0,0,0,2.2-2.2V54.966A2.854,2.854,0,0,0,110.036,54.163Z" transform="translate(-77.823 -47.635)" fill="#241f21"></path><path id="Path_11" data-name="Path 11" d="M119.743,58.491c0-3.4,1.585-5.471,5.175-5.492,3.823-.021,4.943,2.134,4.943,4.711v.508c0,.38-.021.844-.042,1.056h-7.161c.063,1.8.908,2.661,2.683,2.661a3.158,3.158,0,0,0,2.83-1.331l1.669,1.479c-.824,1.162-2.154,1.986-4.669,1.986C121.581,64.069,119.743,62.4,119.743,58.491Zm7.309-1.309c0-1.5-.719-2.218-2.113-2.218-1.479,0-2.2.866-2.26,2.513h4.373Z" transform="translate(-80.412 -48.563)" fill="#241f21"></path><path id="Path_12" data-name="Path 12" d="M141.164,55.73H139.77a1.952,1.952,0,0,0-2.07,2.176v5.979h-2.852V55.5l-.317-2.218h2.514l.359,1.648a2.986,2.986,0,0,1,2.873-1.648h.887Z" transform="translate(-82.97 -48.611)" fill="#241f21"></path><path id="Path_13" data-name="Path 13" d="M148.231,64.069c-2.24,0-3.866-.423-4.838-1.986l1.923-1.394a3.227,3.227,0,0,0,2.872,1.288c1.4,0,1.881-.4,1.881-.887,0-.612-.359-.845-2.852-1.605-2.407-.718-3.359-1.563-3.359-3.38,0-2.006,1.648-3.105,4.33-3.105,2.325,0,3.74.676,4.416,2.007l-1.964,1.289a2.512,2.512,0,0,0-2.408-1.2c-1.246,0-1.775.359-1.775.887,0,.591.444.866,2.767,1.542,2.408.719,3.486,1.4,3.486,3.339C152.709,63.118,151.04,64.069,148.231,64.069Z" transform="translate(-84.503 -48.563)" fill="#241f21"></path><path id="Path_14" data-name="Path 14" d="M161.909,64.069c-3.422,0-5.26-1.5-5.26-5.534S158.55,53,161.909,53c3.338,0,5.26,1.5,5.26,5.535S165.31,64.069,161.909,64.069Zm0-2.028c1.733,0,2.324-1.035,2.324-3.486s-.591-3.507-2.324-3.507-2.323,1.056-2.323,3.507S160.177,62.041,161.909,62.041Z" transform="translate(-86.796 -48.563)" fill="#241f21"></path><path id="Path_15" data-name="Path 15" d="M178.971,63.836V56.95c0-1.12-.507-1.69-1.711-1.69-1.246,0-2.282.887-2.282,1.626v6.95h-2.852v-10.6h2.366l.253,1.183A5.1,5.1,0,0,1,178.232,53c2.3,0,3.612,1.014,3.612,3.169v7.668Z" transform="translate(-89.473 -48.563)" fill="#241f21"></path><path id="Path_16" data-name="Path 16" d="M193.445,63.157V49.075h4.647c4.247,0,6.57,1.563,6.57,6.871,0,5.128-1.882,7.212-6.49,7.212Zm2.864-11.839v9.6h2.044c2.483,0,3.365-1.462,3.365-4.988,0-3.245-1-4.607-3.486-4.607Z" transform="translate(-93.161 -47.884)" fill="#241f21"></path><path id="Path_17" data-name="Path 17" d="M209.695,63.157V49.075h4.648c4.246,0,6.57,1.563,6.57,6.871,0,5.128-1.882,7.212-6.49,7.212Zm2.865-11.839v9.6H214.6c2.484,0,3.366-1.462,3.366-4.988,0-3.245-1-4.607-3.486-4.607Z" transform="translate(-95.972 -47.884)" fill="#241f21"></path><path id="Path_18" data-name="Path 18" d="M225.946,63.157V49.075h5.95c2.6,0,4.186,1.042,4.186,3.586a3.069,3.069,0,0,1-1.843,2.965,3.093,3.093,0,0,1,2.3,3.345c0,2.964-1.7,4.186-4.868,4.186Zm2.824-11.939v3.626h2.383c1.5,0,2.043-.761,2.043-1.883s-.541-1.743-1.983-1.743Zm0,5.669v4.126h2.463c1.783,0,2.424-.721,2.424-2.063,0-1.442-.7-2.063-2.484-2.063Z" transform="translate(-98.783 -47.884)" fill="#241f21"></path><path id="Path_19" data-name="Path 19" d="M72.473,73.77h3.063v5.894h5.746V73.77h3.042V88.621H81.282v-6.38H75.536v6.38H72.473Z" transform="translate(-72.235 -52.156)" fill="#241f21"></path><path id="Path_20" data-name="Path 20" d="M89.994,84.115c0-3.4,1.585-5.471,5.175-5.492,3.824-.021,4.943,2.134,4.943,4.711v.508c0,.38-.021.844-.042,1.056H92.909c.064,1.8.908,2.661,2.683,2.661a3.16,3.16,0,0,0,2.831-1.331l1.669,1.479c-.825,1.162-2.154,1.986-4.669,1.986C91.832,89.693,89.994,88.024,89.994,84.115ZM97.3,82.806c0-1.5-.718-2.218-2.112-2.218-1.479,0-2.2.866-2.26,2.513H97.3Z" transform="translate(-75.266 -52.995)" fill="#241f21"></path><path id="Path_21" data-name="Path 21" d="M107.55,89.671c-2.408,0-3.253-1.035-3.253-3.02,0-2.747,2.345-3.317,6.528-3.634v-.485c0-1.226-.633-1.817-1.986-1.817a2.685,2.685,0,0,0-2.472,1.394L104.4,80.863c.824-1.436,2.345-2.24,4.6-2.24,2.937,0,4.606,1.078,4.606,3.8v4.33c0,.655.169.951.76.951a2.086,2.086,0,0,0,.317-.021v1.753a8.528,8.528,0,0,1-1.584.17c-1.331,0-1.859-.528-2.113-1.436A4.394,4.394,0,0,1,107.55,89.671Zm-.4-3.21c0,.908.359,1.267,1.351,1.267a2.031,2.031,0,0,0,2.324-2.07V84.623C108.712,84.77,107.149,84.918,107.149,86.461Z" transform="translate(-77.74 -52.995)" fill="#241f21"></path><path id="Path_22" data-name="Path 22" d="M122.091,73.259V88.532h-2.852V73.259Z" transform="translate(-80.324 -52.068)" fill="#241f21"></path><path id="Path_23" data-name="Path 23" d="M132.324,88.82a9.731,9.731,0,0,1-2.388.275c-2.281,0-3.464-.992-3.464-3.485V80.37h-1.563V78.321h1.563v-2.3l2.831-.485v2.788h2.767V80.37H129.3v4.922c0,1.035.359,1.606,1.479,1.606a7.544,7.544,0,0,0,1.542-.169Z" transform="translate(-81.305 -52.461)" fill="#241f21"></path><path id="Path_24" data-name="Path 24" d="M142.987,88.532V81.646c0-1.12-.507-1.69-1.711-1.69-1.268,0-2.3.887-2.3,1.626v6.95h-2.852V73.259h2.852v5.725a4.739,4.739,0,0,1,3.211-1.289c2.323,0,3.655,1.014,3.655,3.169v7.668Z" transform="translate(-83.245 -52.068)" fill="#241f21"></path><path id="Path_25" data-name="Path 25" d="M159.507,80.5a5.488,5.488,0,0,1-1.669-3.549c0-2.281,1.648-3.464,4.225-3.464,2.2,0,4.035.8,4.035,3.148,0,1.711-1.12,2.936-2.915,4.141l2.387,2.809a6.394,6.394,0,0,0,.887-2.683H168.8a9.327,9.327,0,0,1-1.732,4.457l2.725,3.211h-3.38l-1.1-1.268a5.99,5.99,0,0,1-4.246,1.521c-2.7,0-4.542-.992-4.542-3.929C156.529,82.953,157.521,81.686,159.507,80.5Zm4.394,5.113-2.978-3.486a3.008,3.008,0,0,0-1.605,2.578c0,1.289.7,1.944,2.091,1.944A3.221,3.221,0,0,0,163.9,85.615Zm-2.091-6.443c1.2-.8,1.8-1.415,1.8-2.387,0-.867-.591-1.31-1.5-1.31a1.364,1.364,0,0,0-1.542,1.437A3.891,3.891,0,0,0,161.81,79.171Z" transform="translate(-86.775 -52.107)" fill="#241f21"></path><path id="Path_26" data-name="Path 26" d="M180.537,73.77H183.6V86.064h6.591v2.556h-9.654Z" transform="translate(-90.928 -52.156)" fill="#241f21"></path><path id="Path_27" data-name="Path 27" d="M194.048,74.717c0-1.2.254-1.458,1.542-1.458,1.267,0,1.521.254,1.521,1.458,0,1.161-.254,1.415-1.521,1.415C194.3,76.132,194.048,75.878,194.048,74.717Zm2.957,3.21v10.6h-2.852v-10.6Z" transform="translate(-93.265 -52.068)" fill="#241f21"></path><path id="Path_28" data-name="Path 28" d="M200.025,79.981V77.91h1.415V76.727c.022-2.535,1.394-3.57,4.035-3.57.507,0,.992.022,1.437.042v2.155c-.4-.022-.761-.042-1.035-.042-1.2,0-1.605.486-1.605,1.605v.992H206.7v2.071h-2.429v8.534H201.44V79.981Z" transform="translate(-94.299 -52.05)" fill="#241f21"></path><path id="Path_29" data-name="Path 29" d="M209.168,84.115c0-3.4,1.585-5.471,5.176-5.492,3.824-.021,4.944,2.134,4.944,4.711v.508c0,.38-.022.844-.042,1.056h-7.162c.064,1.8.909,2.661,2.683,2.661a3.16,3.16,0,0,0,2.831-1.331l1.669,1.479c-.824,1.162-2.154,1.986-4.669,1.986C211.006,89.693,209.168,88.024,209.168,84.115Zm7.309-1.309c0-1.5-.718-2.218-2.112-2.218-1.479,0-2.2.866-2.26,2.513h4.372Z" transform="translate(-95.88 -52.995)" fill="#241f21"></path><path id="Path_30" data-name="Path 30" d="M227.747,89.693c-2.24,0-3.865-.423-4.837-1.986l1.922-1.394a3.228,3.228,0,0,0,2.873,1.289c1.394,0,1.88-.4,1.88-.887,0-.612-.359-.845-2.852-1.605-2.408-.718-3.358-1.563-3.358-3.38,0-2.006,1.647-3.105,4.33-3.105,2.324,0,3.739.676,4.415,2.007l-1.964,1.289a2.511,2.511,0,0,0-2.408-1.2c-1.246,0-1.775.359-1.775.887,0,.591.444.866,2.768,1.542,2.408.719,3.485,1.4,3.485,3.339C232.225,88.742,230.557,89.693,227.747,89.693Z" transform="translate(-98.258 -52.995)" fill="#241f21"></path><path id="Path_31" data-name="Path 31" d="M243.044,88.82a9.729,9.729,0,0,1-2.388.275c-2.281,0-3.464-.992-3.464-3.485V80.37h-1.563V78.321h1.563v-2.3l2.831-.485v2.788h2.767V80.37h-2.767v4.922c0,1.035.359,1.606,1.479,1.606a7.543,7.543,0,0,0,1.542-.169Z" transform="translate(-100.458 -52.461)" fill="#241f21"></path><path id="Path_32" data-name="Path 32" d="M250.874,86.7l2.387-7.8h2.831l-3.633,10.267c-.993,2.768-1.88,4.478-4.711,4.478h-1.563V91.515h1.141c1.12,0,1.605-.4,2.112-1.8L245.36,78.9h2.957Z" transform="translate(-102.141 -53.044)" fill="#241f21"></path><path id="Path_33" data-name="Path 33" d="M262.975,73.259V88.532h-2.852V73.259Z" transform="translate(-104.695 -52.068)" fill="#241f21"></path><path id="Path_34" data-name="Path 34" d="M266.3,84.115c0-3.4,1.585-5.471,5.176-5.492,3.824-.021,4.944,2.134,4.944,4.711v.508c0,.38-.021.844-.042,1.056h-7.161c.063,1.8.908,2.661,2.682,2.661a3.16,3.16,0,0,0,2.831-1.331l1.669,1.479c-.824,1.162-2.154,1.986-4.669,1.986C268.142,89.693,266.3,88.024,266.3,84.115Zm7.309-1.309c0-1.5-.718-2.218-2.112-2.218-1.479,0-2.2.866-2.26,2.513h4.372Z" transform="translate(-105.764 -52.995)" fill="#241f21"></path></g><g id="Group_13" data-name="Group 13"><path id="Path_35" data-name="Path 35" d="M46.132,66.219c-.1,9.533-5.672,15.9-15.173,18.17a41.708,41.708,0,0,1-9.527.979H1.905A1.728,1.728,0,0,1,0,83.463V48.974a1.728,1.728,0,0,1,1.905-1.905H22a45.405,45.405,0,0,1,8.652.793c9.523,2.195,15.385,8.823,15.483,18.357" transform="translate(0 -8.142)" fill="#241f21"></path><path id="Path_36" data-name="Path 36" d="M1.963,34.822A1.766,1.766,0,0,1,0,32.893V1.929A1.765,1.765,0,0,1,1.963,0H19.106a43.016,43.016,0,0,1,8.061.727C36.04,2.737,41.5,8.685,41.594,17.411c-.091,8.727-5.387,14.537-14.241,16.622a44.318,44.318,0,0,1-8.7.789H1.963" transform="translate(0 0)" fill="#fbd10d"></path></g></svg> 