<?xml version="1.0" encoding="UTF-8" standalone="no"?>
<!-- Created with Inkscape (http://www.inkscape.org/) -->

<svg
   xmlns:dc="http://purl.org/dc/elements/1.1/"
   xmlns:cc="http://creativecommons.org/ns#"
   xmlns:rdf="http://www.w3.org/1999/02/22-rdf-syntax-ns#"
   xmlns:svg="http://www.w3.org/2000/svg"
   xmlns="http://www.w3.org/2000/svg"
   xmlns:sodipodi="http://sodipodi.sourceforge.net/DTD/sodipodi-0.dtd"
   xmlns:inkscape="http://www.inkscape.org/namespaces/inkscape"
   width="400"
   height="332.52948"
   viewBox="0 0 105.83333 87.981758"
   version="1.1"
   id="svg21100"
   inkscape:version="0.92.4 (5da689c313, 2019-01-14)"
   sodipodi:docname="Knorr Logo 2020.svg">
  <defs
     id="defs21094" />
  <sodipodi:namedview
     id="base"
     pagecolor="#ffffff"
     bordercolor="#666666"
     borderopacity="1.0"
     inkscape:pageopacity="0.0"
     inkscape:pageshadow="2"
     inkscape:zoom="2.4298597"
     inkscape:cx="200"
     inkscape:cy="166.26473"
     inkscape:document-units="px"
     inkscape:current-layer="svg21100"
     showgrid="false"
     fit-margin-top="0"
     fit-margin-left="0"
     fit-margin-right="0"
     fit-margin-bottom="0"
     units="px"
     inkscape:window-width="1920"
     inkscape:window-height="1001"
     inkscape:window-x="-9"
     inkscape:window-y="-9"
     inkscape:window-maximized="1" />
  <metadata
     id="metadata21097">
    <rdf:RDF>
      <cc:Work
         rdf:about="">
        <dc:format>image/svg+xml</dc:format>
        <dc:type
           rdf:resource="http://purl.org/dc/dcmitype/StillImage" />
        <dc:title></dc:title>
      </cc:Work>
    </rdf:RDF>
  </metadata>
  <path
     inkscape:connector-curvature="0"
     style="clip-rule:nonzero;fill:#3f823f;fill-opacity:1;fill-rule:nonzero;stroke:none;stroke-width:1.24366915"
     d="M 105.01232,0.34096733 C 98.677375,9.4401363 77.224081,11.621418 55.2024,11.621418 c -17.67373,0 -30.673923,3.016863 -40.58442,8.890291 C 4.71235,26.380273 0,33.764562 0,46.526762 v 41.04592 c 0,0.4081 0.36921,0.63157 0.82102,0.0825 7.25312,-8.83685 29.61487,-15.27381 52.632448,-15.27381 17.124757,0 29.027057,-1.95781 37.25665,-6.87417 10.804382,-6.45155 15.123212,-17.68829 15.123212,-33.16131 V 0.42346033 c 0,-0.408096 -0.41294,-0.665553 -0.82101,-0.08249"
     id="path15926" />
  <path
     inkscape:connector-curvature="0"
     style="clip-rule:nonzero;fill:#fdfdf5;fill-opacity:1;fill-rule:nonzero;stroke:none;stroke-width:1.24366915"
     d="m 97.895224,46.036102 c -0.354633,-0.25735 -0.811298,-0.0924 -1.316542,0.60238 -2.13755,2.95859 -3.876752,4.06136 -5.164137,4.06136 -1.010481,0 -1.486581,-0.8016 -1.020204,-2.22987 0.320632,-0.99105 1.010481,-2.2007 1.656603,-3.85244 0.626696,-1.60802 0.340056,-2.86143 -0.709275,-3.61441 -0.79187,-0.5684 -2.239577,-0.96193 -3.109175,-1.41857 0.684989,-1.58374 -0.174893,-3.22091 -1.972383,-3.22091 -1.680896,0 -2.798259,1.37968 -2.798259,2.82254 0,1.10277 0.6267,1.9821 1.841219,2.45334 -3.050873,6.10659 -6.179483,9.12832 -8.166433,9.12832 -1.102786,0 -1.374838,-1.00074 -0.850173,-2.43387 0.456665,-1.25341 1.914095,-3.70188 2.259017,-4.90667 0.335191,-1.17568 0.121519,-2.24929 -0.991057,-2.92944 -0.621835,-0.38377 -1.520573,-0.66069 -2.09869,-0.94733 0.519815,-1.38455 -0.04378,-3.2549 -2.006389,-3.2549 -1.627451,0 -2.803106,1.32138 -2.773966,2.88082 0.01939,1.16108 0.680138,1.9821 1.787774,2.37077 -0.71899,0.94244 -1.816914,1.39425 -2.667087,1.45256 -0.485802,0.0282 -0.874448,-0.0141 -1.165939,-0.16534 -0.276917,-0.1456 -0.510099,-0.35952 -0.830731,-1.01048 -0.801596,-1.62748 -2.016083,-2.49222 -4.066222,-2.49222 -1.471979,0 -2.992573,0.48097 -4.620021,1.59347 -1.219387,0.83075 -2.278441,1.87521 -3.536678,3.53667 -1.248542,1.64205 -2.074428,2.7011 -3.007168,3.663 -1.418535,1.45745 -2.652518,2.29303 -3.667857,2.55049 -0.573259,0.14101 -1.039629,0.0437 -1.267967,-0.30107 -0.233379,-0.34971 -0.184729,-0.89389 0.08249,-1.56914 0.616973,-1.5643 2.521373,-4.39171 3.007168,-6.19892 0.46637,-1.75376 -0.252768,-3.20635 -2.190977,-3.20635 -1.986964,0 -4.105107,0.98622 -6.271794,2.90028 0.374076,-1.59347 -0.179793,-2.63792 -1.243677,-2.90028 -1.948114,-0.47124 -4.309119,0.83075 -6.519556,3.27435 -1.617753,1.78292 -3.551273,4.21683 -5.212741,5.74225 -1.680892,1.54002 -2.895379,1.90923 -4.100206,1.77323 -2.739947,-0.31588 -3.643567,-5.18846 -6.198921,-6.82563 3.269486,0 7.024807,-0.87447 9.701614,-2.43874 3.109157,-1.8218 3.901024,-2.92457 6.66043,-5.62567 2.380465,-2.33188 4.459723,-3.67272 7.155955,-4.12449 0.636398,-0.10189 0.937605,-0.26723 0.96676,-0.68502 0.0282,-0.34478 -0.209054,-0.6267 -0.757883,-0.69471 -2.594207,-0.32045 -5.936567,0.33033 -8.822252,2.02582 -3.133482,1.84609 -5.144736,4.06622 -8.56966,6.74789 -1.287391,1.01048 -2.35131,1.72947 -3.8039,2.3076 -1.136788,0.45177 -2.511604,0.73842 -3.570654,0.71413 1.11732,-2.21044 2.351267,-4.70262 3.298602,-6.53412 2.968284,0.0176 4.78522,-1.96267 4.78522,-3.59498 0,-1.2777 -1.093074,-2.16186 -2.574783,-2.16186 -1.880075,0 -3.458944,0.9522 -4.702619,2.59421 -6.74789,-0.61698 -11.54767,2.03068 -13.20914,6.58269 -0.18473,0.50526 -0.27216,0.83562 -0.25735,1.07852 0.0141,0.20905 0.10682,0.35948 0.27216,0.43721 0.1604,0.0776 0.35465,0.0969 0.54897,0.0141 0.19918,-0.0825 0.33526,-0.25276 0.5538,-0.58781 2.08412,-3.21595 5.25645,-4.80454 10.3623,-4.39645 -0.48579,0.67038 -1.83636,3.12372 -3.43465,6.19889 -1.30199,-0.26229 -2.65252,-0.0631 -3.02173,1.16594 -0.27709,0.93761 0.30107,1.8995 1.45255,1.92379 -2.1327,3.88647 -4.08564,7.70493 -4.62975,8.76398 -0.51008,0.99592 -0.27215,1.60803 0.63157,1.55462 1.01048,-0.0582 2.80309,-0.59269 3.60955,-1.09794 0.64126,-0.4081 0.87929,-0.72873 1.40397,-1.82177 1.00561,-2.08899 2.26389,-4.62975 3.39094,-6.98592 1.03477,0.73842 1.40401,3.61924 2.17156,5.6208 1.117355,2.9197 2.730243,4.08564 4.95041,4.08564 2.370735,0 4.037067,-0.8599 6.184329,-3.3958 3.560968,-4.2071 5.445908,-7.03937 7.2094,-8.33649 0.534374,-0.39833 0.864736,-0.49553 1.068784,-0.39833 0.330326,0.15546 0.213636,0.58781 -0.05359,1.14161 -1.306851,2.75454 -4.537457,8.69598 -4.906668,9.5073 -0.446946,0.98619 -0.233027,1.53999 0.573259,1.48171 0.636398,-0.0437 0.89389,-0.10188 1.710047,-0.34478 0.787001,-0.22844 1.700317,-0.53924 2.186111,-1.32141 0.432386,-0.68984 0.568395,-1.10763 0.830752,-1.67603 0.660688,-1.4137 0.937605,-2.08412 2.084123,-3.9399 2.045238,-3.29865 4.503438,-4.93583 5.562491,-4.65891 0.320456,0.0825 0.461506,0.39837 0.335262,0.91331 -0.07791,0.30601 -0.257351,0.63644 -0.539274,1.16108 -1.272797,2.32706 -2.812816,4.41115 -3.182027,6.50013 -0.354651,1.98697 0.748153,3.36665 2.662212,3.36665 2.613668,0 5.606241,-2.0404 8.744553,-5.59651 -0.641263,3.25976 1.112499,5.58195 4.474319,5.58195 2.113242,0 4.21196,-0.79186 6.16004,-2.64282 1.821766,-1.72947 3.128617,-4.20223 3.507537,-6.84502 1.471993,0.43235 3.89618,-0.57812 5.601362,-2.64768 0.806444,0.48583 0.893887,0.95706 0.573256,1.81693 -0.432375,1.15139 -0.864736,1.85579 -1.748911,3.45898 -0.884175,1.60802 -1.282534,2.88082 -1.156227,4.18281 0.150603,1.54485 1.272821,2.69136 3.128614,2.69136 4.148804,0 8.020694,-3.76015 12.222928,-12.12093 1.350552,0.54897 1.608027,1.20969 1.399128,2.20557 -0.208913,0.99105 -0.709278,1.8218 -1.452569,3.26466 -0.733564,1.4234 -1.097924,2.31729 -1.097924,3.56097 0,1.76349 1.122228,3.09946 3.313212,3.09946 2.875983,0 6.213495,-2.69626 8.642533,-6.58273 0.616984,-0.99105 0.689853,-1.54971 0.310901,-1.82176 m -34.404918,0.787 c -1.45259,3.50756 -3.041188,5.08643 -4.30912,5.11558 -1.287426,0.0352 -1.719777,-1.40884 -0.408096,-4.85809 1.122229,-2.95859 3.060578,-5.29047 4.508303,-5.32932 1.141653,-0.0282 1.855786,1.10763 0.209054,5.07183"
     id="path15928" />
  <path
     inkscape:connector-curvature="0"
     style="clip-rule:nonzero;fill:#fdfdf5;fill-opacity:1;fill-rule:nonzero;stroke:#fdfdf5;stroke-width:0.25511536;stroke-linecap:butt;stroke-linejoin:miter;stroke-miterlimit:10;stroke-opacity:1"
     d="m 94.397414,35.484312 c 0.519814,-0.12621 0.787008,-0.5684 0.78214,-1.00561 -0.0046,-0.50522 -0.369201,-1.01048 -1.063905,-1.01048 h -1.282537 l -0.140909,0.14102 v 2.91001 l 0.140909,0.14559 h 0.238032 l 0.145739,-0.14559 v -0.99105 h 0.548969 l 0.952183,1.0882 0.116513,0.0486 h 0.291477 l 0.145738,-0.14559 v -0.0247 l -0.03881,-0.0969 z m -0.427507,-0.13608 v 0.004 l -0.0099,-0.0211 h 0.01939 z m -0.75301,-0.33033 v -1.04446 h 0.898752 c 0.359492,0 0.524662,0.25735 0.524662,0.51009 0,0.14101 -0.04858,0.27674 -0.140873,0.36921 -0.09712,0.10681 -0.242898,0.16534 -0.417802,0.16534 z m 0,0"
     id="path15930" />
  <path
     inkscape:connector-curvature="0"
     style="clip-rule:nonzero;fill:#fdfdf5;fill-opacity:1;fill-rule:nonzero;stroke:none;stroke-width:1.24366915"
     d="m 93.858164,31.714462 c -2.28331,0 -3.322942,1.7489 -3.322942,3.37634 0,1.62262 1.039632,3.37638 3.322942,3.37638 2.195845,0 3.342356,-1.70031 3.342356,-3.37638 0,-1.67602 -1.146511,-3.37634 -3.342356,-3.37634 m 0,6.13575 c -1.617746,0 -2.705958,-1.10763 -2.705958,-2.75941 0,-1.65173 1.088212,-2.7545 2.705958,-2.7545 1.617735,0 2.705947,1.10277 2.705947,2.7545 0,1.65178 -1.088212,2.75941 -2.705947,2.75941"
     id="path15932" />
  <path
     inkscape:connector-curvature="0"
     style="clip-rule:nonzero;fill:none;stroke:#fdfdf5;stroke-width:0.18915869;stroke-linecap:butt;stroke-linejoin:miter;stroke-miterlimit:10;stroke-opacity:1"
     d="m 93.858164,31.714462 c -2.28331,0 -3.322928,1.7489 -3.322928,3.37638 0,1.62258 1.039618,3.37634 3.322928,3.37634 2.195856,0 3.342356,-1.70031 3.342356,-3.37634 0,-1.67606 -1.1465,-3.37638 -3.342356,-3.37638 z m 0,6.13575 c -1.617746,0 -2.705958,-1.10763 -2.705958,-2.75937 0,-1.65177 1.088212,-2.75454 2.705958,-2.75454 1.617735,0 2.705947,1.10277 2.705947,2.75454 0,1.65174 -1.088212,2.75937 -2.705947,2.75937 z m 0,0"
     id="path15934" />
  <path
     inkscape:connector-curvature="0"
     style="clip-rule:nonzero;fill:#fdee47;fill-opacity:1;fill-rule:nonzero;stroke:none;stroke-width:1.24366915"
     d="m 66.006786,28.639292 c 0.0035,0.17486 -0.0282,0.24289 -0.05358,0.26722 -0.01058,0.0141 -0.05852,0.0585 -0.228443,0.11175 l -0.09237,0.0282 v 0.85504 l 0.150533,-0.0141 0.165339,-0.0282 v 2.54563 h 0.859907 v -3.90589 H 66.00171 Z m 0,0"
     id="path15936" />
  <path
     inkscape:connector-curvature="0"
     style="clip-rule:nonzero;fill:#fdee47;fill-opacity:1;fill-rule:nonzero;stroke:none;stroke-width:1.24366915"
     d="m 71.17577,30.329912 c 0.174893,-0.16534 0.262357,-0.39837 0.262357,-0.68988 0,-0.40806 -0.170028,-0.72869 -0.514967,-0.95216 -0.281747,-0.1798 -0.626686,-0.27216 -1.025055,-0.27216 -0.40321,0 -0.748142,0.0924 -1.020194,0.27216 -0.344921,0.2235 -0.519818,0.5441 -0.519818,0.95216 0,0.16041 0.03881,0.31587 0.101989,0.45181 l 0.155468,0.23796 c -0.238032,0.20412 -0.359495,0.4858 -0.359495,0.84531 0,0.21364 0.04378,0.40807 0.131179,0.57323 0.242897,0.46154 0.753003,0.69471 1.510857,0.69471 0.218608,0 0.42751,-0.0176 0.621835,-0.0582 0.306072,-0.068 0.558682,-0.20906 0.738429,-0.41293 0.189488,-0.20905 0.286647,-0.48096 0.286647,-0.79673 0,-0.24783 -0.07287,-0.47123 -0.208913,-0.66555 z m -1.778062,0.53924 c 0.145739,-0.073 0.310902,-0.10682 0.500379,-0.10682 0.189453,0 0.359506,0.0353 0.50039,0.10682 0.218608,0.10188 0.242898,0.22351 0.242898,0.306 0,0.0825 -0.02433,0.2087 -0.238033,0.31094 -0.296342,0.14101 -0.723852,0.14101 -1.00562,0 -0.213742,-0.10189 -0.238067,-0.22845 -0.238067,-0.31094 0,-0.0825 0.02432,-0.20412 0.238067,-0.306 m -0.136008,-1.2777 c 0,-0.0776 0,-0.306 0.636398,-0.306 0.310902,0 0.514964,0.0631 0.607272,0.19425 l 0.0099,0.0106 0.02432,0.10189 c 0,0.073 0,0.306 -0.641274,0.306 -0.636398,0 -0.636398,-0.23303 -0.636398,-0.306"
     id="path15938" />
  <path
     inkscape:connector-curvature="0"
     style="clip-rule:nonzero;fill:#fdee47;fill-opacity:1;fill-rule:nonzero;stroke:none;stroke-width:1.24366915"
     d="m 75.567478,29.562332 c 0,-0.36921 -0.145738,-0.66555 -0.442087,-0.87933 -0.252627,-0.17486 -0.563547,-0.26722 -0.923038,-0.26722 -0.238033,0 -0.446939,0.0282 -0.626686,0.0825 -0.223473,0.0779 -0.398373,0.16041 -0.534392,0.25735 -0.116549,0.0779 -0.257492,0.20412 -0.432375,0.39837 l -0.07773,0.0825 0.582971,0.78214 0.106819,-0.1604 c 0.262322,-0.38864 0.568394,-0.57323 0.93275,-0.57323 0.480951,0 0.480951,0.21857 0.480951,0.31094 0,0.14101 -0.05348,0.16534 -0.07287,0.17486 -0.189453,0.0825 -0.456651,0.0779 -0.952179,0.0631 l -0.140873,-0.004 v 0.89389 h 0.140944 c 0.218607,-0.004 0.398358,-0.0106 0.548965,-0.0106 0.709278,0 0.709278,0.29155 0.709278,0.39837 0,0.21857 -0.07287,0.46637 -0.621835,0.46637 -0.252627,0 -0.471238,-0.0388 -0.650986,-0.11669 -0.170028,-0.0779 -0.359495,-0.21364 -0.568394,-0.39354 l -0.126314,-0.11669 -0.456661,0.81616 0.08743,0.073 c 0.461526,0.3935 0.991057,0.59269 1.569163,0.60242 l 0.06804,0.004 c 0.42751,0 0.787005,-0.0924 1.063919,-0.27674 0.349786,-0.22844 0.52953,-0.57326 0.52953,-1.03476 0,-0.39837 -0.131179,-0.69958 -0.398359,-0.89876 0.136009,-0.16534 0.204048,-0.38863 0.204048,-0.67525"
     id="path15940" />
  <path
     inkscape:connector-curvature="0"
     style="clip-rule:nonzero;fill:#fdee47;fill-opacity:1;fill-rule:nonzero;stroke:none;stroke-width:1.24366915"
     d="m 79.774574,30.509632 -0.160333,-0.17486 c 0.174893,-0.16992 0.267187,-0.40323 0.267187,-0.69474 0,-0.40806 -0.174893,-0.72869 -0.519818,-0.95216 -0.281747,-0.1798 -0.626697,-0.27216 -1.025055,-0.27216 -0.403224,0 -0.743295,0.0924 -1.020198,0.27216 -0.344921,0.2235 -0.519814,0.5441 -0.519814,0.95216 0,0.16041 0.03881,0.31587 0.101988,0.45181 l 0.155469,0.23796 c -0.238033,0.20412 -0.359495,0.4858 -0.359495,0.84045 0,0.21857 0.04378,0.40806 0.131178,0.57809 0.242898,0.46154 0.753007,0.69957 1.510861,0.69957 0.218608,0 0.42751,-0.0247 0.621835,-0.0631 0.306037,-0.068 0.558682,-0.20906 0.738429,-0.41293 0.189453,-0.21364 0.286612,-0.48096 0.286612,-0.80159 0,-0.2429 -0.06804,-0.46638 -0.208913,-0.66069 m -1.93837,0.35948 c 0.145738,-0.068 0.310936,-0.10682 0.500379,-0.10682 0.189453,0 0.359495,0.0388 0.500379,0.10682 0.218608,0.10188 0.242897,0.22351 0.242897,0.306 0,0.0825 -0.02432,0.20905 -0.242897,0.31094 -0.291477,0.14101 -0.71899,0.14101 -1.000758,0 -0.213743,-0.10189 -0.238033,-0.22845 -0.238033,-0.31094 0,-0.0825 0.02433,-0.20412 0.238033,-0.306 m -0.136044,-1.27766 c 0,-0.0776 0,-0.306 0.636412,-0.306 0.310902,0 0.514953,0.0631 0.612123,0.19918 l 0.0049,0.004 0.02432,0.10189 c 0,0.073 0,0.306 -0.64127,0.306 -0.636412,0 -0.636412,-0.23303 -0.636412,-0.306"
     id="path15942" />
  <path
     inkscape:connector-curvature="0"
     style="clip-rule:nonzero;fill:#fdee47;fill-opacity:1;fill-rule:nonzero;stroke:none;stroke-width:1.24366915"
     d="m 49.499,30.087012 c -0.164987,-0.0486 -0.432386,-0.0924 -0.821022,-0.12621 -0.3935,-0.0352 -0.529509,-0.0874 -0.573223,-0.11669 l -0.09237,-0.17485 0.06804,-0.19425 c 0.08249,-0.0779 0.252768,-0.11669 0.500354,-0.11669 0.417791,0.0106 0.772442,0.13608 1.083344,0.39837 l 0.131143,0.10681 0.432386,-0.85017 -0.0973,-0.068 c -0.442081,-0.31094 -0.971625,-0.47127 -1.578869,-0.47127 -0.422655,0 -0.772442,0.11669 -1.044494,0.34971 -0.276741,0.23797 -0.412925,0.55384 -0.412925,0.94247 0,0.29155 0.07297,0.52468 0.213637,0.69471 0.218572,0.25735 0.597548,0.4081 1.122228,0.44695 0.505219,0.0282 0.578089,0.0437 0.587819,0.0437 0.257351,0.0582 0.257351,0.18931 0.257351,0.2429 l -0.145597,0.2429 c -0.131144,0.0924 -0.330327,0.1262 -0.602414,0.12162 -0.388671,-0.004 -0.718998,-0.1456 -1.020204,-0.42265 l -0.136079,-0.13115 -0.408061,0.87933 0.08249,0.068 c 0.374076,0.31588 0.88416,0.47124 1.520558,0.47124 0.51985,0 0.932776,-0.11669 1.224253,-0.34972 0.291547,-0.22844 0.44208,-0.54897 0.44208,-0.94247 0,-0.306 -0.08743,-0.5538 -0.257351,-0.74329 -0.136079,-0.14559 -0.296483,-0.24289 -0.4761,-0.30106"
     id="path15944" />
  <path
     inkscape:connector-curvature="0"
     style="clip-rule:nonzero;fill:#fdee47;fill-opacity:1;fill-rule:nonzero;stroke:none;stroke-width:1.24366915"
     d="m 52.710181,30.825432 h 1.374856 v -0.8696 h -1.374856 v -0.5587 h 2.050139 l 0.01058,-0.88416 h -3.007169 v 3.89133 h 3.036323 v -0.92791 h -2.088988 z m 0,0"
     id="path15946" />
  <path
     inkscape:connector-curvature="0"
     style="clip-rule:nonzero;fill:#fdee47;fill-opacity:1;fill-rule:nonzero;stroke:none;stroke-width:1.24366915"
     d="M 56.149735,32.404302 H 57.1019 v -3.89133 h -0.952165 z m 0,0"
     id="path15948" />
  <path
     inkscape:connector-curvature="0"
     style="clip-rule:nonzero;fill:#fdee47;fill-opacity:1;fill-rule:nonzero;stroke:none;stroke-width:1.24366915"
     d="m 58.024945,29.397132 h 1.127058 v 3.00717 h 0.9522 v -3.00717 h 1.127058 v -0.88416 h -3.206316 z m 0,0"
     id="path15950" />
</svg>
