<svg xmlns="http://www.w3.org/2000/svg" width="400" height="332.529" viewBox="0 0 105.833 87.982"><path d="M105.012.341c-6.335 9.1-27.788 11.28-49.81 11.28-17.673 0-30.674 3.017-40.584 8.89C4.712 26.382 0 33.766 0 46.528v41.046c0 .408.37.631.821.082 7.253-8.837 29.615-15.274 52.632-15.274 17.125 0 29.028-1.957 37.257-6.874 10.805-6.451 15.123-17.688 15.123-33.161V.423c0-.408-.413-.665-.82-.082" fill="#3f823f"/><path d="M97.895 46.036c-.354-.257-.811-.092-1.316.602-2.138 2.96-3.877 4.062-5.164 4.062-1.01 0-1.487-.802-1.02-2.23.32-.991 1.01-2.2 1.656-3.852.627-1.608.34-2.862-.71-3.615-.791-.568-2.239-.962-3.109-1.418.685-1.584-.174-3.221-1.972-3.221-1.68 0-2.798 1.38-2.798 2.822 0 1.103.627 1.982 1.841 2.454-3.05 6.106-6.18 9.128-8.166 9.128-1.103 0-1.375-1-.85-2.434.456-1.253 1.914-3.702 2.258-4.907.336-1.175.122-2.249-.99-2.93-.622-.383-1.521-.66-2.1-.946.52-1.385-.043-3.255-2.006-3.255-1.627 0-2.803 1.321-2.774 2.88.02 1.162.68 1.983 1.788 2.371A3.802 3.802 0 0169.796 43c-.486.028-.874-.014-1.166-.166-.277-.145-.51-.36-.83-1.01-.802-1.628-2.017-2.492-4.067-2.492-1.472 0-2.992.48-4.62 1.593-1.22.831-2.278 1.875-3.537 3.537-1.248 1.642-2.074 2.701-3.007 3.663-1.418 1.457-2.652 2.293-3.668 2.55-.573.141-1.04.044-1.268-.3-.233-.35-.184-.895.083-1.57.617-1.564 2.521-4.392 3.007-6.199.467-1.754-.253-3.206-2.19-3.206-1.988 0-4.106.986-6.273 2.9.374-1.593-.18-2.638-1.243-2.9-1.948-.471-4.31.83-6.52 3.274-1.618 1.783-3.551 4.217-5.213 5.742-1.68 1.54-2.895 1.91-4.1 1.774-2.74-.316-3.643-5.189-6.199-6.826 3.27 0 7.025-.874 9.702-2.439 3.109-1.821 3.9-2.924 6.66-5.625 2.38-2.332 4.46-3.673 7.156-4.125.637-.102.938-.267.967-.685.028-.345-.209-.627-.758-.695-2.594-.32-5.936.33-8.822 2.026-3.134 1.846-5.145 4.067-8.57 6.748-1.287 1.01-2.351 1.73-3.804 2.308-1.136.452-2.511.738-3.57.714 1.117-2.21 2.35-4.703 3.298-6.534 2.969.017 4.786-1.963 4.786-3.595 0-1.278-1.094-2.162-2.575-2.162-1.88 0-3.46.952-4.703 2.594-6.748-.617-11.548 2.03-13.209 6.583-.185.505-.272.835-.257 1.078.014.21.106.36.272.438.16.077.354.096.549.014.199-.083.335-.253.554-.588 2.084-3.216 5.256-4.805 10.362-4.397-.486.67-1.837 3.124-3.435 6.2-1.302-.263-2.652-.064-3.022 1.165-.277.938.302 1.9 1.453 1.924-2.133 3.887-4.086 7.705-4.63 8.764-.51.996-.272 1.608.632 1.555 1.01-.059 2.803-.593 3.61-1.098.64-.408.879-.729 1.403-1.822 1.006-2.09 2.264-4.63 3.391-6.986 1.035.738 1.404 3.62 2.172 5.62 1.117 2.92 2.73 4.086 4.95 4.086 2.371 0 4.037-.86 6.185-3.395 3.56-4.207 5.445-7.04 7.209-8.337.534-.398.865-.495 1.069-.398.33.155.213.588-.054 1.141-1.307 2.755-4.537 8.696-4.906 9.508-.447.986-.234 1.54.573 1.481.636-.043.894-.101 1.71-.344.787-.229 1.7-.54 2.186-1.322.432-.69.568-1.107.83-1.676.661-1.413.938-2.084 2.085-3.94 2.045-3.298 4.503-4.936 5.562-4.659.32.083.462.399.336.914-.078.306-.258.636-.54 1.16-1.273 2.328-2.813 4.412-3.182 6.5-.354 1.988.748 3.368 2.662 3.368 2.614 0 5.607-2.04 8.745-5.597-.641 3.26 1.113 5.582 4.474 5.582 2.114 0 4.212-.792 6.16-2.643 1.822-1.73 3.129-4.202 3.508-6.845 1.472.433 3.896-.578 5.601-2.647.807.485.894.957.574 1.816-.433 1.152-.865 1.856-1.75 3.46-.884 1.607-1.282 2.88-1.156 4.182.151 1.545 1.273 2.692 3.129 2.692 4.149 0 8.02-3.76 12.223-12.121 1.35.549 1.608 1.21 1.4 2.205-.21.991-.71 1.822-1.453 3.265-.734 1.423-1.098 2.317-1.098 3.56 0 1.764 1.122 3.1 3.313 3.1 2.876 0 6.213-2.696 8.642-6.582.617-.991.69-1.55.311-1.822m-34.405.787c-1.452 3.507-3.04 5.086-4.309 5.115-1.287.036-1.72-1.408-.408-4.858 1.122-2.958 3.06-5.29 4.508-5.329 1.142-.028 1.856 1.108.21 5.072" fill="#fdfdf5"/><path d="M94.397 35.484c.52-.126.787-.568.783-1.005-.005-.506-.37-1.01-1.064-1.01h-1.283l-.14.14v2.91l.14.146h.238l.146-.146v-.99h.549l.952 1.087.117.049h.291l.146-.146v-.024l-.039-.097zm-.427-.136v.004l-.01-.02h.02zm-.753-.33v-1.045h.899c.36 0 .524.258.524.51a.522.522 0 01-.14.37.549.549 0 01-.418.165zm0 0" fill="#fdfdf5" stroke="#fdfdf5" stroke-width=".255" stroke-miterlimit="10"/><path d="M93.858 31.714c-2.283 0-3.323 1.75-3.323 3.377 0 1.622 1.04 3.376 3.323 3.376 2.196 0 3.343-1.7 3.343-3.376s-1.147-3.377-3.343-3.377m0 6.136c-1.618 0-2.706-1.107-2.706-2.76 0-1.65 1.088-2.754 2.706-2.754 1.618 0 2.706 1.103 2.706 2.755s-1.088 2.76-2.706 2.76" fill="#fdfdf5"/><path d="M93.858 31.714c-2.283 0-3.323 1.75-3.323 3.377 0 1.622 1.04 3.376 3.323 3.376 2.196 0 3.343-1.7 3.343-3.376s-1.147-3.377-3.343-3.377zm0 6.136c-1.618 0-2.706-1.107-2.706-2.76 0-1.65 1.088-2.754 2.706-2.754 1.618 0 2.706 1.103 2.706 2.755s-1.088 2.76-2.706 2.76zm0 0" fill="none" stroke="#fdfdf5" stroke-width=".189" stroke-miterlimit="10"/><path d="M66.007 28.64c.003.174-.028.242-.054.267-.01.014-.058.058-.228.111l-.093.028v.856l.15-.015.166-.028v2.546h.86v-3.906h-.806zm0 0M71.176 30.33c.175-.165.262-.398.262-.69 0-.408-.17-.729-.515-.952-.282-.18-.627-.272-1.025-.272-.403 0-.748.092-1.02.272-.345.223-.52.544-.52.952 0 .16.039.316.102.452l.156.238c-.238.204-.36.486-.36.845 0 .214.044.408.131.573.243.462.753.695 1.511.695.219 0 .428-.018.622-.058.306-.068.559-.21.738-.413.19-.21.287-.481.287-.797a1.14 1.14 0 00-.209-.665zm-1.778.54c.145-.074.31-.108.5-.108s.36.036.5.107c.22.102.243.224.243.306 0 .083-.024.209-.238.311-.296.141-.724.141-1.005 0-.214-.102-.238-.228-.238-.31 0-.083.024-.205.238-.307m-.136-1.278c0-.077 0-.306.636-.306.311 0 .515.064.607.195l.01.01.025.102c0 .073 0 .306-.642.306-.636 0-.636-.233-.636-.306M75.567 29.562c0-.369-.145-.665-.442-.879a1.591 1.591 0 00-.923-.267c-.238 0-.447.028-.626.082-.224.078-.399.16-.535.258a2.451 2.451 0 00-.432.398l-.078.083.583.782.107-.16c.262-.39.568-.574.933-.574.48 0 .48.219.48.311 0 .141-.053.165-.072.175-.19.082-.457.078-.952.063l-.141-.004v.894h.14c.22-.004.399-.01.55-.01.709 0 .709.29.709.398 0 .218-.073.466-.622.466-.253 0-.471-.039-.65-.117a2.568 2.568 0 01-.57-.393l-.126-.117-.456.816.087.073c.462.394.991.593 1.57.603l.067.004c.428 0 .787-.093 1.064-.277.35-.229.53-.573.53-1.035 0-.398-.131-.7-.399-.899.136-.165.205-.388.205-.675M79.775 30.51l-.16-.175c.174-.17.266-.403.266-.695 0-.408-.174-.729-.52-.952-.281-.18-.626-.272-1.024-.272-.404 0-.744.092-1.02.272-.346.223-.52.544-.52.952 0 .16.038.316.102.452l.155.238c-.238.204-.36.486-.36.84 0 .219.044.408.132.578.243.462.753.7 1.51.7.22 0 .428-.025.622-.063.306-.068.56-.21.739-.413.19-.214.286-.481.286-.802 0-.243-.068-.466-.208-.66m-1.939.36c.146-.069.311-.108.5-.108.19 0 .36.04.5.107.22.102.244.224.244.306 0 .083-.025.21-.243.311a1.237 1.237 0 01-1 0c-.215-.102-.239-.228-.239-.31 0-.083.024-.205.238-.307m-.136-1.278c0-.077 0-.306.637-.306.31 0 .514.064.612.2l.005.004.024.101c0 .073 0 .306-.641.306-.637 0-.637-.233-.637-.306M49.499 30.087c-.165-.049-.432-.092-.821-.126-.394-.035-.53-.088-.573-.117l-.093-.175.068-.194c.083-.078.253-.117.5-.117.419.01.773.136 1.084.399l.131.107.433-.85-.098-.069c-.442-.31-.971-.47-1.579-.47-.422 0-.772.116-1.044.349-.277.238-.413.554-.413.942 0 .292.073.525.214.695.218.257.597.408 1.122.447.505.028.578.044.588.044.257.058.257.189.257.243l-.145.242c-.132.093-.33.127-.603.122-.389-.004-.719-.146-1.02-.423l-.136-.13-.408.879.082.068c.374.315.884.47 1.52.47.52 0 .934-.116 1.225-.349.292-.228.442-.549.442-.942 0-.306-.087-.554-.257-.744a1.107 1.107 0 00-.476-.3M52.71 30.825h1.375v-.87H52.71v-.558h2.05l.01-.884h-3.006v3.891H54.8v-.928h-2.089zm0 0M56.15 32.404h.952v-3.891h-.952zm0 0M58.025 29.397h1.127v3.007h.952v-3.007h1.127v-.884h-3.206zm0 0" fill="#fdee47"/></svg>