<svg xmlns="http://www.w3.org/2000/svg" width="230.357" height="80"><g data-name="Group 12" fill="#241f21"><path data-name="Path 8" d="M68.993 51.415h-5.344l-.972 3.257h-2.979l4.69-14.851h4.1l4.645 14.851h-3.168zm-2.641-8.935l-2.006 6.57h3.967z"/><path data-name="Path 9" d="M81.539 54.668v-6.886c0-1.12-.507-1.69-1.711-1.69-1.246 0-2.281.887-2.281 1.626v6.95h-2.852v-10.6h2.366l.254 1.183a5.1 5.1 0 013.485-1.419c2.3 0 3.612 1.014 3.612 3.169v7.668z"/><path data-name="Path 10" d="M94.53 54.668l-.317-1.268a4.176 4.176 0 01-3.464 1.458c-2.683 0-4.1-1.415-4.1-5.45 0-4.119 1.986-5.556 4.52-5.556a4.354 4.354 0 012.746.866v-5.323h2.852v12.992l.337 2.282zm-2.619-8.746c-1.648 0-2.324 1.056-2.324 3.486 0 2.555.655 3.358 2.134 3.358a1.979 1.979 0 002.2-2.2v-3.84a2.854 2.854 0 00-2.01-.803z"/><path data-name="Path 11" d="M99.029 49.323c0-3.4 1.585-5.471 5.175-5.492 3.823-.021 4.943 2.134 4.943 4.711v.508c0 .38-.021.844-.042 1.056h-7.161c.063 1.8.908 2.661 2.683 2.661a3.158 3.158 0 002.83-1.331l1.669 1.479c-.824 1.162-2.154 1.986-4.669 1.986-3.59 0-5.428-1.669-5.428-5.578zm7.309-1.309c0-1.5-.719-2.218-2.113-2.218-1.479 0-2.2.866-2.26 2.513h4.373z"/><path data-name="Path 12" d="M117.892 46.514h-1.394a1.952 1.952 0 00-2.07 2.176v5.979h-2.852v-8.385l-.317-2.218h2.514l.359 1.648a2.986 2.986 0 012.873-1.648h.887z"/><path data-name="Path 13" d="M123.426 54.901c-2.24 0-3.866-.423-4.838-1.986l1.923-1.394a3.227 3.227 0 002.872 1.288c1.4 0 1.881-.4 1.881-.887 0-.612-.359-.845-2.852-1.605-2.407-.718-3.359-1.563-3.359-3.38 0-2.006 1.648-3.105 4.33-3.105 2.325 0 3.74.676 4.416 2.007l-1.964 1.289a2.512 2.512 0 00-2.408-1.2c-1.246 0-1.775.359-1.775.887 0 .591.444.866 2.767 1.542 2.408.719 3.486 1.4 3.486 3.339-.001 2.254-1.67 3.205-4.479 3.205z"/><path data-name="Path 14" d="M134.811 54.901c-3.422 0-5.26-1.5-5.26-5.534s1.901-5.535 5.26-5.535c3.338 0 5.26 1.5 5.26 5.535s-1.859 5.534-5.26 5.534zm0-2.028c1.733 0 2.324-1.035 2.324-3.486s-.591-3.507-2.324-3.507-2.323 1.056-2.323 3.507.591 3.486 2.323 3.486z"/><path data-name="Path 15" d="M149.196 54.668v-6.886c0-1.12-.507-1.69-1.711-1.69-1.246 0-2.282.887-2.282 1.626v6.95h-2.852v-10.6h2.366l.253 1.183a5.1 5.1 0 013.487-1.419c2.3 0 3.612 1.014 3.612 3.169v7.668z"/><path data-name="Path 16" d="M159.982 54.668V40.586h4.647c4.247 0 6.57 1.563 6.57 6.871 0 5.128-1.882 7.212-6.49 7.212zm2.864-11.839v9.6h2.044c2.483 0 3.365-1.462 3.365-4.988 0-3.245-1-4.607-3.486-4.607z"/><path data-name="Path 17" d="M173.421 54.668V40.586h4.648c4.246 0 6.57 1.563 6.57 6.871 0 5.128-1.882 7.212-6.49 7.212zm2.865-11.839v9.6h2.04c2.484 0 3.366-1.462 3.366-4.988 0-3.245-1-4.607-3.486-4.607z"/><path data-name="Path 18" d="M186.861 54.668V40.586h5.95c2.6 0 4.186 1.042 4.186 3.586a3.069 3.069 0 01-1.843 2.965 3.093 3.093 0 012.3 3.345c0 2.964-1.7 4.186-4.868 4.186zm2.824-11.939v3.626h2.383c1.5 0 2.043-.761 2.043-1.883s-.541-1.743-1.983-1.743zm0 5.669v4.126h2.463c1.783 0 2.424-.721 2.424-2.063 0-1.442-.7-2.063-2.484-2.063z"/><path data-name="Path 19" d="M59.936 61.009h3.063v5.894h5.746v-5.894h3.042V75.86h-3.042v-6.38h-5.746v6.38h-3.063z"/><path data-name="Path 20" d="M74.426 70.515c0-3.4 1.585-5.471 5.175-5.492 3.824-.021 4.943 2.134 4.943 4.711v.508c0 .38-.021.844-.042 1.056h-7.161c.064 1.8.908 2.661 2.683 2.661a3.16 3.16 0 002.831-1.331l1.669 1.479c-.825 1.162-2.154 1.986-4.669 1.986-3.591 0-5.429-1.669-5.429-5.578zm7.306-1.309c0-1.5-.718-2.218-2.112-2.218-1.479 0-2.2.866-2.26 2.513h4.372z"/><path data-name="Path 21" d="M89.508 76.071c-2.408 0-3.253-1.035-3.253-3.02 0-2.747 2.345-3.317 6.528-3.634v-.485c0-1.226-.633-1.817-1.986-1.817a2.685 2.685 0 00-2.472 1.394l-1.967-1.246c.824-1.436 2.345-2.24 4.6-2.24 2.937 0 4.606 1.078 4.606 3.8v4.33c0 .655.169.951.76.951a2.086 2.086 0 00.317-.021v1.753a8.528 8.528 0 01-1.584.17c-1.331 0-1.859-.528-2.113-1.436a4.394 4.394 0 01-3.436 1.501zm-.4-3.21c0 .908.359 1.267 1.351 1.267a2.031 2.031 0 002.324-2.07v-1.035c-2.113.147-3.676.295-3.676 1.838z"/><path data-name="Path 22" d="M101.465 60.586v15.273h-2.852V60.586z"/><path data-name="Path 23" d="M110.717 75.754a9.731 9.731 0 01-2.388.275c-2.281 0-3.464-.992-3.464-3.485v-5.24h-1.563v-2.049h1.563v-2.3l2.831-.485v2.788h2.767v2.046h-2.77v4.922c0 1.035.359 1.606 1.479 1.606a7.544 7.544 0 001.542-.169z"/><path data-name="Path 24" d="M119.44 75.859v-6.886c0-1.12-.507-1.69-1.711-1.69-1.268 0-2.3.887-2.3 1.626v6.95h-2.852V60.586h2.852v5.725a4.739 4.739 0 013.211-1.289c2.323 0 3.655 1.014 3.655 3.169v7.668z"/><path data-name="Path 25" d="M132.43 67.788a5.488 5.488 0 01-1.669-3.549c0-2.281 1.648-3.464 4.225-3.464 2.2 0 4.035.8 4.035 3.148 0 1.711-1.12 2.936-2.915 4.141l2.387 2.809a6.394 6.394 0 00.887-2.683h2.343a9.327 9.327 0 01-1.732 4.457l2.725 3.211h-3.38l-1.1-1.268a5.99 5.99 0 01-4.246 1.521c-2.7 0-4.542-.992-4.542-3.929.004-1.941.996-3.208 2.982-4.394zm4.394 5.113l-2.978-3.486a3.008 3.008 0 00-1.605 2.578c0 1.289.7 1.944 2.091 1.944a3.221 3.221 0 002.491-1.034zm-2.091-6.443c1.2-.8 1.8-1.415 1.8-2.387 0-.867-.591-1.31-1.5-1.31a1.364 1.364 0 00-1.542 1.437 3.891 3.891 0 001.242 2.261z"/><path data-name="Path 26" d="M149.307 61.009h3.063v12.294h6.591v2.556h-9.654z"/><path data-name="Path 27" d="M160.481 62.044c0-1.2.254-1.458 1.542-1.458 1.267 0 1.521.254 1.521 1.458 0 1.161-.254 1.415-1.521 1.415-1.29 0-1.542-.254-1.542-1.415zm2.957 3.21v10.6h-2.852v-10.6z"/><path data-name="Path 28" d="M165.424 67.326v-2.071h1.415v-1.183c.022-2.535 1.394-3.57 4.035-3.57.507 0 .992.022 1.437.042v2.155c-.4-.022-.761-.042-1.035-.042-1.2 0-1.605.486-1.605 1.605v.992h2.428v2.071h-2.429v8.534h-2.831v-8.533z"/><path data-name="Path 29" d="M172.986 70.515c0-3.4 1.585-5.471 5.176-5.492 3.824-.021 4.944 2.134 4.944 4.711v.508c0 .38-.022.844-.042 1.056h-7.162c.064 1.8.909 2.661 2.683 2.661a3.16 3.16 0 002.831-1.331l1.669 1.479c-.824 1.162-2.154 1.986-4.669 1.986-3.592 0-5.43-1.669-5.43-5.578zm7.309-1.309c0-1.5-.718-2.218-2.112-2.218-1.479 0-2.2.866-2.26 2.513h4.372z"/><path data-name="Path 30" d="M189.187 76.093c-2.24 0-3.865-.423-4.837-1.986l1.922-1.394a3.228 3.228 0 002.873 1.289c1.394 0 1.88-.4 1.88-.887 0-.612-.359-.845-2.852-1.605-2.408-.718-3.358-1.563-3.358-3.38 0-2.006 1.647-3.105 4.33-3.105 2.324 0 3.739.676 4.415 2.007l-1.964 1.289a2.511 2.511 0 00-2.408-1.2c-1.246 0-1.775.359-1.775.887 0 .591.444.866 2.768 1.542 2.408.719 3.485 1.4 3.485 3.339-.001 2.253-1.669 3.204-4.479 3.204z"/><path data-name="Path 31" d="M202.284 75.754a9.729 9.729 0 01-2.388.275c-2.281 0-3.464-.992-3.464-3.485v-5.24h-1.563v-2.049h1.563v-2.3l2.831-.485v2.788h2.767v2.046h-2.767v4.922c0 1.035.359 1.606 1.479 1.606a7.543 7.543 0 001.542-.169z"/><path data-name="Path 32" d="M208.431 73.051l2.387-7.8h2.831l-3.633 10.267c-.993 2.768-1.88 4.478-4.711 4.478h-1.563v-2.13h1.141c1.12 0 1.605-.4 2.112-1.8l-4.078-10.815h2.957z"/><path data-name="Path 33" d="M217.978 60.586v15.273h-2.852V60.586z"/><path data-name="Path 34" d="M220.234 70.515c0-3.4 1.585-5.471 5.176-5.492 3.824-.021 4.944 2.134 4.944 4.711v.508c0 .38-.021.844-.042 1.056h-7.161c.063 1.8.908 2.661 2.682 2.661a3.16 3.16 0 002.831-1.331l1.669 1.479c-.824 1.162-2.154 1.986-4.669 1.986-3.588 0-5.43-1.669-5.43-5.578zm7.309-1.309c0-1.5-.718-2.218-2.112-2.218-1.479 0-2.2.866-2.26 2.513h4.372z"/></g><g data-name="Group 13"><path data-name="Path 35" d="M46.132 58.077c-.1 9.533-5.672 15.9-15.173 18.17a41.708 41.708 0 01-9.527.979H1.905A1.728 1.728 0 010 75.321V40.832a1.728 1.728 0 011.905-1.905H22a45.405 45.405 0 018.652.793c9.523 2.195 15.385 8.823 15.483 18.357" fill="#241f21"/><path data-name="Path 36" d="M1.963 34.822A1.766 1.766 0 010 32.893V1.929A1.765 1.765 0 011.963 0h17.143a43.016 43.016 0 018.061.727C36.04 2.737 41.5 8.685 41.594 17.411c-.091 8.727-5.387 14.537-14.241 16.622a44.318 44.318 0 01-8.7.789H1.963" fill="#fbd10d"/></g></svg>